# xmcd
# 
# Track frame offsets:
#     150
#     5228
#     23411
#     35618
#     48916
#     61453
#     74454
#     76493
#     81576
#     86795
#     90514
#     104422
#     106550
#     107900
#     109501
#     126435
#     137740
#     140216
#     149966
#     168627
#     171494
#     183735
#     195884
#     200008
#     212513
#     223830
#     249915
# 
# Disc length: 3479
# 
# Revision: 3
# Processed by: cddbd v1.5.2PL0 Copyright (c) Steve Scherf et al.
# Submitted via: fre:ac v1.0.31
# 
DISCID=9c0d951b
DTITLE=Monty Python - The Album Of The Soundtrack Of The Trailer Of The Film Of Monty Python And The Holy Grail - Executive Version
DYEAR=2006
DGENRE=Soundtrack
TTITLE0=Introduction
TTITLE1=Introduction (Part 2)
TTITLE2=Arrival At Castle
TTITLE3=Constitutional Peasants
TTITLE4=Witch Burning
TTITLE5=Logician
TTITLE6=Camelot
TTITLE7=Camelot Song
TTITLE8=Arthur And God
TTITLE9=Classic (Silbury Hill)
TTITLE10=French Castle
TTITLE11=Announcement
TTITLE12=Apology
TTITLE13=Story So Far
TTITLE14=Brave Sir Robin
TTITLE15=The Knights Who Say ''Ni''
TTITLE16=Classic (Silbury Hill) (Part 2)
TTITLE17=Marilyn Monroe
TTITLE18=Sir Lancelot and Swamp
TTITLE19=Tim The Enchanter
TTITLE20=Drama Critic
TTITLE21=Hand Grenade Of Antioch
TTITLE22=Announcement (Part 2)
TTITLE23=End Of Quest
TTITLE24=Arthur's Song
TTITLE25=Documentary - Terry Jones and Michael Palin
TTITLE26=Run Away Song
EXTD=Legacy Remaster
EXTT0=
EXTT1=
EXTT2=
EXTT3=
EXTT4=
EXTT5=
EXTT6=
EXTT7=
EXTT8=
EXTT9=
EXTT10=
EXTT11=
EXTT12=
EXTT13=
EXTT14=
EXTT15=
EXTT16=
EXTT17=
EXTT18=
EXTT19=
EXTT20=
EXTT21=
EXTT22=
EXTT23=
EXTT24=
EXTT25=
EXTT26=
PLAYORDER=
